<?xml version="1.0" encoding="UTF-8" standalone="no"?>
<!-- Created with Inkscape (http://www.inkscape.org/) -->

<svg
   xmlns:dc="http://purl.org/dc/elements/1.1/"
   xmlns:cc="http://creativecommons.org/ns#"
   xmlns:rdf="http://www.w3.org/1999/02/22-rdf-syntax-ns#"
   xmlns:svg="http://www.w3.org/2000/svg"
   xmlns="http://www.w3.org/2000/svg"
   xmlns:sodipodi="http://sodipodi.sourceforge.net/DTD/sodipodi-0.dtd"
   xmlns:inkscape="http://www.inkscape.org/namespaces/inkscape"
   width="218.5206mm"
   height="218.5206mm"
   viewBox="0 0 218.5206 218.5206"
   version="1.1"
   id="svg985"
   sodipodi:docname="color_circos.svg"
   inkscape:version="0.92.3 (2405546, 2018-03-11)">
  <defs
     id="defs979" />
  <sodipodi:namedview
     id="base"
     pagecolor="#ffffff"
     bordercolor="#666666"
     borderopacity="1.0"
     inkscape:pageopacity="0.0"
     inkscape:pageshadow="2"
     inkscape:zoom="0.35"
     inkscape:cx="170.09517"
     inkscape:cy="462.95232"
     inkscape:document-units="mm"
     inkscape:current-layer="layer1"
     showgrid="false"
     inkscape:window-width="1366"
     inkscape:window-height="705"
     inkscape:window-x="-8"
     inkscape:window-y="-8"
     inkscape:window-maximized="1"
     showborder="false"
     inkscape:pagecheckerboard="true" />
  <metadata
     id="metadata982">
    <rdf:RDF>
      <cc:Work
         rdf:about="">
        <dc:format>image/svg+xml</dc:format>
        <dc:type
           rdf:resource="http://purl.org/dc/dcmitype/StillImage" />
        <dc:title></dc:title>
      </cc:Work>
    </rdf:RDF>
  </metadata>
  <g
     inkscape:label="Layer 1"
     inkscape:groupmode="layer"
     id="layer1"
     transform="translate(62.013274,-52.802199)">
    <g
       style="opacity:0.7"
       id="g8"
       transform="matrix(0.75612665,0,0,0.75612665,-107.00281,41.838349)"
       inkscape:export-xdpi="96"
       inkscape:export-ydpi="96">
      <path
         style="opacity:1;fill:#f15a24"
         inkscape:connector-curvature="0"
         id="path6"
         d="m 332.663,101.142 c 0,0 -0.167,0.153 -0.493,0.451 -0.327,0.287 -0.807,0.763 -1.452,1.289 -0.643,0.54 -1.438,1.222 -2.394,1.949 -0.475,0.367 -0.993,0.784 -1.54,1.188 -0.553,0.383 -1.141,0.79 -1.762,1.22 -2.504,1.776 -5.588,3.637 -9.241,5.55 -3.631,1.851 -7.834,3.725 -12.492,5.241 -1.164,0.382 -2.362,0.806 -3.589,1.154 -1.217,0.318 -2.465,0.665 -3.743,0.958 -1.283,0.316 -2.578,0.604 -3.899,0.825 -1.319,0.223 -2.686,0.527 -4.041,0.663 -5.478,0.778 -11.285,1.006 -17.208,0.504 -5.921,-0.491 -11.972,-1.678 -17.829,-3.707 -5.869,-2 -11.526,-4.863 -16.732,-8.39 -5.183,-3.559 -9.914,-7.802 -13.847,-12.615 -3.978,-4.769 -7.202,-10.042 -9.676,-15.444 -2.457,-5.421 -4.174,-10.964 -5.178,-16.375 -1.035,-5.396 -1.376,-10.647 -1.261,-15.487 0.083,-2.431 0.246,-4.747 0.529,-6.954 0.332,-2.218 0.669,-4.291 1.094,-6.228 0.479,-1.951 0.932,-3.735 1.475,-5.377 0.589,-1.644 1.056,-3.111 1.679,-4.419 0.579,-1.306 1.114,-2.428 1.678,-3.37 0.523,-0.943 1.034,-1.685 1.476,-2.245 0.386,-0.494 0.745,-0.842 1.003,-0.992 l -28,1.45 c -0.914,1.602 -2.449,2.918 -4.71,3.592 -6.824,2.032 -13.69,3.899 -20.667,5.333 -1.895,0.39 -3.806,0.212 -5.466,-0.478 -1.223,0.888 -2.789,1.438 -4.713,1.438 -1.191,0 -2.241,-0.217 -3.164,-0.586 0.711,1.542 1.529,3.283 2.473,5.225 1.706,3.503 3.722,7.627 6.125,12.203 1.174,2.294 2.418,4.708 3.818,7.2 1.301,2.519 2.772,5.113 4.308,7.786 1.49,2.691 3.112,5.444 4.838,8.249 1.668,2.828 3.463,5.697 5.396,8.584 1.842,2.926 3.846,5.864 5.993,8.785 1.031,1.483 2.113,2.957 3.229,4.425 1.088,1.483 2.234,2.952 3.391,4.422 4.648,5.875 9.729,11.7 15.32,17.21 5.547,5.548 11.659,10.703 18.054,15.482 6.439,4.729 13.282,8.9 20.246,12.594 6.971,3.691 14.114,6.778 21.164,9.422 3.53,1.308 7.028,2.528 10.486,3.686 3.465,1.056 6.882,2.074 10.223,3.03 6.689,1.792 13.035,3.155 19.06,4.106 15.438,2.438 39.25,4.743 39.25,4.743 z" />
    </g>
    <path
       style="opacity:0.6;fill:#29abe2;stroke-width:0.7561267"
       inkscape:connector-curvature="0"
       id="path10"
       d="m -56.342273,170.56895 8.94725,35.47519 48.14028675,-19.1557 c 0,0 2.65622545,-0.67826 3.56057235,0.34702 0.945104,1.07147 -0.5361249,2.93003 -0.5361249,2.93003 l -37.0501972,32.51344 27.2205766,27.22058 c 0,0 30.2450164,-38.31073 15.1225084,-66.03563 -15.1232622,-27.72414 -73.974174,-8.75818 -65.404872,-13.29493 z"
       inkscape:export-xdpi="96"
       inkscape:export-ydpi="96" />
    <path
       style="opacity:0.7;fill:#fbb03b;stroke-width:0.7561267"
       inkscape:connector-curvature="0"
       id="path12"
       d="m 47.247021,260.73701 c 0,0 3.781343,-97.45941 -43.0992323,-196.993674 L -39.054941,101.34551 c 0,0 94.607311,54.99161 34.3750214,146.69917 -1.3815079,1.85483 21.9336166,15.08699 21.9336166,15.08699 z"
       inkscape:export-xdpi="96"
       inkscape:export-ydpi="96" />
    <path
       style="opacity:0.7;fill:#8cc63f;stroke-width:0.7561267"
       inkscape:connector-curvature="0"
       id="path20"
       d="m -35.878519,108.94533 -10.129805,3.46537 c 92.028215,44.69764 97.826928,134.8038 98.094538,152.172 0.333531,0.10497 0.639756,0.33709 0.854488,0.74934 0.407479,0.78179 0.8839,1.50616 1.401078,2.19801 1.575029,-0.0416 3.150058,-0.0711 4.725066,-0.0916 0.547364,-0.87713 0.61767,-1.58406 0.719047,-1.78674 -9.577175,-109.8901 -95.664412,-156.70645 -95.664412,-156.70645 z"
       inkscape:export-xdpi="96"
       inkscape:export-ydpi="96" />
    <path
       style="opacity:0.7;fill:#8cc63f;stroke-width:0.7561267"
       inkscape:connector-curvature="0"
       id="path22"
       d="m 60.10123,265.65184 c 0,0 -15.559676,-83.80228 16.197654,-205.286841 0.504427,0 23.952616,9.739625 23.952616,9.739625 0,0 -61.826269,83.641226 -16.458589,188.490306 0,0.50356 -23.691681,7.05691 -23.691681,7.05691 z"
       inkscape:export-xdpi="96"
       inkscape:export-ydpi="96" />
    <path
       style="opacity:0.7;fill:#8cc63f;stroke-width:0.7561267"
       inkscape:connector-curvature="0"
       id="path24"
       d="m 103.71537,73.14428 c 0,0 -64.784927,82.11383 -19.921702,185.45065 L 133.93318,219.9153 c 0,0 -107.397195,-54.87515 12.65,-98.63598 0.0748,0.17841 -42.86781,-48.13504 -42.86781,-48.13504 z"
       inkscape:export-xdpi="96"
       inkscape:export-ydpi="96" />
    <g
       transform="matrix(0.75612665,0,0,0.75612665,-107.00281,41.838363)"
       id="Layer_1"
       inkscape:export-xdpi="96"
       inkscape:export-ydpi="96">
      <path
         style="opacity:1;fill:#8cc63f"
         inkscape:connector-curvature="0"
         id="path51"
         d="m 312.421,231.551 c -22.327,33.257 -59.531,55.724 -102.006,57.79 l 0.366,13.995 c 47.279,-2.195 88.69,-27.216 113.448,-64.271 z" />
      <path
         style="opacity:1;fill:#f15a24"
         inkscape:connector-curvature="0"
         id="path53"
         d="M 274.101,48.971 C 310.391,72.173 334.5,112.823 334.5,159 c 0,24.685 -6.891,47.79 -18.847,67.495 l 11.811,7.517 C 340.806,212.132 348.5,186.448 348.5,159 348.5,107.754 321.683,62.658 281.348,36.997 Z" />
      <path
         style="opacity:1;fill:#29abe2"
         inkscape:connector-curvature="0"
         id="path55"
         d="m 73.5,159 c 0,-25.844 7.552,-49.957 20.564,-70.249 L 82.446,80.945 C 67.931,103.47 59.5,130.269 59.5,159 c 0,22.074 4.983,43.005 13.871,61.736 l 12.533,-6.244 C 77.955,197.643 73.5,178.833 73.5,159 Z" />
      <path
         style="opacity:1;fill:#666666"
         inkscape:connector-curvature="0"
         id="path57"
         d="m 204.417,289.495 c -0.139,0 -0.277,0.005 -0.417,0.005 -49.992,0 -93.501,-28.262 -115.41,-69.642 l -12.532,6.244 C 100.269,272.077 148.53,303.5 204,303.5 c 0.262,0 0.521,-0.009 0.783,-0.01 z" />
      <path
         style="opacity:1;fill:#f7931e"
         inkscape:connector-curvature="0"
         id="path59"
         d="M 97.42,83.777 C 121.076,50.358 160.032,28.5 204,28.5 c 23.639,0 45.83,6.319 64.974,17.354 L 276.221,33.88 C 254.96,21.561 230.29,14.5 204,14.5 155.2,14.5 111.978,38.82 85.803,75.972 Z" />
    </g>
  </g>
</svg>
