<?xml version="1.0" encoding="UTF-8" standalone="no"?>
<!-- Created with Inkscape (http://www.inkscape.org/) -->

<svg
   xmlns:dc="http://purl.org/dc/elements/1.1/"
   xmlns:cc="http://creativecommons.org/ns#"
   xmlns:rdf="http://www.w3.org/1999/02/22-rdf-syntax-ns#"
   xmlns:svg="http://www.w3.org/2000/svg"
   xmlns="http://www.w3.org/2000/svg"
   xmlns:sodipodi="http://sodipodi.sourceforge.net/DTD/sodipodi-0.dtd"
   xmlns:inkscape="http://www.inkscape.org/namespaces/inkscape"
   width="46.399025mm"
   height="46.399025mm"
   viewBox="0 0 46.399025 46.399025"
   version="1.1"
   id="svg47"
   inkscape:version="0.92.3 (2405546, 2018-03-11)"
   sodipodi:docname="circos_orange.svg">
  <defs
     id="defs41" />
  <sodipodi:namedview
     id="base"
     pagecolor="#ffffff"
     bordercolor="#666666"
     borderopacity="1.0"
     inkscape:pageopacity="0.0"
     inkscape:pageshadow="2"
     inkscape:zoom="0.35"
     inkscape:cx="136.25464"
     inkscape:cy="-6.602515"
     inkscape:document-units="mm"
     inkscape:current-layer="layer1"
     showgrid="false"
     inkscape:window-width="1366"
     inkscape:window-height="705"
     inkscape:window-x="-8"
     inkscape:window-y="-8"
     inkscape:window-maximized="1" />
  <metadata
     id="metadata44">
    <rdf:RDF>
      <cc:Work
         rdf:about="">
        <dc:format>image/svg+xml</dc:format>
        <dc:type
           rdf:resource="http://purl.org/dc/dcmitype/StillImage" />
        <dc:title></dc:title>
      </cc:Work>
    </rdf:RDF>
  </metadata>
  <g
     inkscape:label="Layer 1"
     inkscape:groupmode="layer"
     id="layer1"
     transform="translate(-69.782626,-100.68739)">
    <g
       style="opacity:0.7;fill:#ff6600"
       id="g8"
       transform="matrix(0.16055026,0,0,0.16055026,60.229886,98.359411)"
       inkscape:export-xdpi="96"
       inkscape:export-ydpi="96">
      <path
         style="opacity:1;fill:#ff6600"
         inkscape:connector-curvature="0"
         id="path6"
         d="m 332.663,101.142 c 0,0 -0.167,0.153 -0.493,0.451 -0.327,0.287 -0.807,0.763 -1.452,1.289 -0.643,0.54 -1.438,1.222 -2.394,1.949 -0.475,0.367 -0.993,0.784 -1.54,1.188 -0.553,0.383 -1.141,0.79 -1.762,1.22 -2.504,1.776 -5.588,3.637 -9.241,5.55 -3.631,1.851 -7.834,3.725 -12.492,5.241 -1.164,0.382 -2.362,0.806 -3.589,1.154 -1.217,0.318 -2.465,0.665 -3.743,0.958 -1.283,0.316 -2.578,0.604 -3.899,0.825 -1.319,0.223 -2.686,0.527 -4.041,0.663 -5.478,0.778 -11.285,1.006 -17.208,0.504 -5.921,-0.491 -11.972,-1.678 -17.829,-3.707 -5.869,-2 -11.526,-4.863 -16.732,-8.39 -5.183,-3.559 -9.914,-7.802 -13.847,-12.615 -3.978,-4.769 -7.202,-10.042 -9.676,-15.444 -2.457,-5.421 -4.174,-10.964 -5.178,-16.375 -1.035,-5.396 -1.376,-10.647 -1.261,-15.487 0.083,-2.431 0.246,-4.747 0.529,-6.954 0.332,-2.218 0.669,-4.291 1.094,-6.228 0.479,-1.951 0.932,-3.735 1.475,-5.377 0.589,-1.644 1.056,-3.111 1.679,-4.419 0.579,-1.306 1.114,-2.428 1.678,-3.37 0.523,-0.943 1.034,-1.685 1.476,-2.245 0.386,-0.494 0.745,-0.842 1.003,-0.992 l -28,1.45 c -0.914,1.602 -2.449,2.918 -4.71,3.592 -6.824,2.032 -13.69,3.899 -20.667,5.333 -1.895,0.39 -3.806,0.212 -5.466,-0.478 -1.223,0.888 -2.789,1.438 -4.713,1.438 -1.191,0 -2.241,-0.217 -3.164,-0.586 0.711,1.542 1.529,3.283 2.473,5.225 1.706,3.503 3.722,7.627 6.125,12.203 1.174,2.294 2.418,4.708 3.818,7.2 1.301,2.519 2.772,5.113 4.308,7.786 1.49,2.691 3.112,5.444 4.838,8.249 1.668,2.828 3.463,5.697 5.396,8.584 1.842,2.926 3.846,5.864 5.993,8.785 1.031,1.483 2.113,2.957 3.229,4.425 1.088,1.483 2.234,2.952 3.391,4.422 4.648,5.875 9.729,11.7 15.32,17.21 5.547,5.548 11.659,10.703 18.054,15.482 6.439,4.729 13.282,8.9 20.246,12.594 6.971,3.691 14.114,6.778 21.164,9.422 3.53,1.308 7.028,2.528 10.486,3.686 3.465,1.056 6.882,2.074 10.223,3.03 6.689,1.792 13.035,3.155 19.06,4.106 15.438,2.438 39.25,4.743 39.25,4.743 z" />
    </g>
    <path
       style="opacity:0.6;fill:#ff6600;stroke-width:0.16055028"
       inkscape:connector-curvature="0"
       id="path10"
       d="m 70.986766,125.6931 1.8998,7.53254 10.22174,-4.06738 c 0,0 0.56401,-0.14401 0.75603,0.0737 0.20068,0.22751 -0.11384,0.62214 -0.11384,0.62214 l -7.86696,6.90366 5.77981,5.77981 c 0,0 6.422,-8.13461 3.211,-14.02151 -3.21116,-5.88673 -15.70712,-1.85964 -13.88758,-2.82294 z"
       inkscape:export-xdpi="96"
       inkscape:export-ydpi="96" />
    <path
       style="opacity:0.7;fill:#ff6600;stroke-width:0.16055028"
       inkscape:connector-curvature="0"
       id="path12"
       d="m 92.982146,144.83871 c 0,0 0.8029,-20.6938 -9.15137,-41.82816 l -9.17334,7.98417 c 0,0 20.0882,11.6765 7.29893,31.149 -0.29334,0.39384 4.65722,3.20345 4.65722,3.20345 z"
       inkscape:export-xdpi="96"
       inkscape:export-ydpi="96" />
    <path
       style="opacity:0.7;fill:#ff6600;stroke-width:0.16055028"
       inkscape:connector-curvature="0"
       id="path20"
       d="m 75.331886,112.6084 -2.15088,0.73582 c 19.54058,9.49076 20.77183,28.62322 20.82866,32.31105 0.0708,0.0223 0.13584,0.0716 0.18143,0.15911 0.0865,0.166 0.18768,0.31981 0.2975,0.46671 0.33443,-0.009 0.66886,-0.0151 1.00328,-0.0194 0.11622,-0.18623 0.13115,-0.33633 0.15268,-0.37937 -2.03355,-23.33331 -20.31267,-33.27394 -20.31267,-33.27394 z"
       inkscape:export-xdpi="96"
       inkscape:export-ydpi="96" />
    <path
       style="opacity:0.7;fill:#ff6600;stroke-width:0.16055028"
       inkscape:connector-curvature="0"
       id="path22"
       d="m 95.711506,145.88229 c 0,0 -3.30382,-17.79395 3.43929,-43.58907 0.10711,0 5.085924,2.06804 5.085924,2.06804 0,0 -13.127724,17.75975 -3.49469,40.02262 0,0.10692 -5.030524,1.49841 -5.030524,1.49841 z"
       inkscape:export-xdpi="96"
       inkscape:export-ydpi="96" />
    <path
       style="opacity:0.7;fill:#ff6600;stroke-width:0.16055028"
       inkscape:connector-curvature="0"
       id="path24"
       d="m 104.97221,105.00668 c 0,0 -13.755944,17.43543 -4.23002,39.3772 l 10.64625,-8.21295 c 0,0 -22.803924,-11.65177 2.686,-20.94362 0.0159,0.0379 -9.10223,-10.22063 -9.10223,-10.22063 z"
       inkscape:export-xdpi="96"
       inkscape:export-ydpi="96" />
    <g
       transform="matrix(0.16055026,0,0,0.16055026,60.229886,98.359414)"
       id="Layer_1"
       inkscape:export-xdpi="96"
       inkscape:export-ydpi="96"
       style="fill:#ff6600">
      <path
         style="opacity:1;fill:#ff6600"
         inkscape:connector-curvature="0"
         id="path51"
         d="m 312.421,231.551 c -22.327,33.257 -59.531,55.724 -102.006,57.79 l 0.366,13.995 c 47.279,-2.195 88.69,-27.216 113.448,-64.271 z" />
      <path
         style="opacity:1;fill:#ff6600"
         inkscape:connector-curvature="0"
         id="path53"
         d="M 274.101,48.971 C 310.391,72.173 334.5,112.823 334.5,159 c 0,24.685 -6.891,47.79 -18.847,67.495 l 11.811,7.517 C 340.806,212.132 348.5,186.448 348.5,159 348.5,107.754 321.683,62.658 281.348,36.997 Z" />
      <path
         style="opacity:1;fill:#ff6600"
         inkscape:connector-curvature="0"
         id="path55"
         d="m 73.5,159 c 0,-25.844 7.552,-49.957 20.564,-70.249 L 82.446,80.945 C 67.931,103.47 59.5,130.269 59.5,159 c 0,22.074 4.983,43.005 13.871,61.736 l 12.533,-6.244 C 77.955,197.643 73.5,178.833 73.5,159 Z" />
      <path
         style="opacity:1;fill:#ff6600"
         inkscape:connector-curvature="0"
         id="path57"
         d="m 204.417,289.495 c -0.139,0 -0.277,0.005 -0.417,0.005 -49.992,0 -93.501,-28.262 -115.41,-69.642 l -12.532,6.244 C 100.269,272.077 148.53,303.5 204,303.5 c 0.262,0 0.521,-0.009 0.783,-0.01 z" />
      <path
         style="opacity:1;fill:#ff6600"
         inkscape:connector-curvature="0"
         id="path59"
         d="M 97.42,83.777 C 121.076,50.358 160.032,28.5 204,28.5 c 23.639,0 45.83,6.319 64.974,17.354 L 276.221,33.88 C 254.96,21.561 230.29,14.5 204,14.5 155.2,14.5 111.978,38.82 85.803,75.972 Z" />
    </g>
  </g>
</svg>
