<?xml version="1.0" encoding="UTF-8" standalone="no"?>
<!-- Generator: Adobe Illustrator 16.0.0, SVG Export Plug-In . SVG Version: 6.00 Build 0)  -->

<svg
   xmlns:dc="http://purl.org/dc/elements/1.1/"
   xmlns:cc="http://creativecommons.org/ns#"
   xmlns:rdf="http://www.w3.org/1999/02/22-rdf-syntax-ns#"
   xmlns:svg="http://www.w3.org/2000/svg"
   xmlns="http://www.w3.org/2000/svg"
   xmlns:sodipodi="http://sodipodi.sourceforge.net/DTD/sodipodi-0.dtd"
   xmlns:inkscape="http://www.inkscape.org/namespaces/inkscape"
   version="1.1"
   id="Capa_1"
   x="0px"
   y="0px"
   width="105.25391"
   height="138.40729"
   viewBox="0 0 105.25391 138.40728"
   xml:space="preserve"
   sodipodi:docname="logo_dna_orange.svg"
   inkscape:version="0.92.3 (2405546, 2018-03-11)"><metadata
   id="metadata47"><rdf:RDF><cc:Work
       rdf:about=""><dc:format>image/svg+xml</dc:format><dc:type
         rdf:resource="http://purl.org/dc/dcmitype/StillImage" /><dc:title></dc:title></cc:Work></rdf:RDF></metadata><defs
   id="defs45" /><sodipodi:namedview
   pagecolor="#ffffff"
   bordercolor="#666666"
   borderopacity="1"
   objecttolerance="10"
   gridtolerance="10"
   guidetolerance="10"
   inkscape:pageopacity="0"
   inkscape:pageshadow="2"
   inkscape:window-width="1366"
   inkscape:window-height="705"
   id="namedview43"
   showgrid="false"
   inkscape:zoom="0.49166667"
   inkscape:cx="119.93983"
   inkscape:cy="59.368486"
   inkscape:window-x="-8"
   inkscape:window-y="-8"
   inkscape:window-maximized="1"
   inkscape:current-layer="Capa_1" />
<g
   id="g10"
   transform="matrix(0.16103719,0,0,0.14417426,-24.670898,0)"
   style="fill:#ff6600">
	<g
   id="g8"
   style="fill:#ff6600">
		<path
   d="m 776.8,0 h -50 c -16.6,0 -30,13.4 -30,30 v 243 c 0,18.9 -8.8,37.1 -18.6,52.7 -8.601,13.8 -19.2,26.5 -31,37.6 -14.3,13.5 -34,28.3 -60.101,40 16.101,4.2 31.801,9.4 47,15.601 25.7,10.399 49.801,23.5 72,39.1 5.801,-4.7 11.301,-9.7 16.801,-14.8 C 774.7,394.1 806.8,330.1 806.8,276 V 30 c 0,-16.6 -13.4,-30 -30,-30 z"
   id="path2"
   inkscape:connector-curvature="0"
   style="fill:#ff6600" />
		<path
   d="m 312.8,596.6 c 14.3,-13.5 34,-28.3 60.101,-40 C 356.8,552.4 341.1,547.2 325.9,541 c -25.7,-10.4 -49.8,-23.5 -72,-39.1 -5.8,4.699 -11.3,9.699 -16.8,14.8 -51.8,49.1 -83.9,113.1 -83.9,167.2 v 246 c 0,16.6 13.4,30 30,30 h 50 c 16.6,0 30,-13.4 30,-30 V 687 c 0,-18.8 8.8,-37.1 18.6,-52.7 8.7,-13.9 19.2,-26.5 31,-37.7 z"
   id="path4"
   inkscape:connector-curvature="0"
   style="fill:#ff6600" />
		<path
   d="m 722.8,516.7 c -5.399,-5.101 -11,-10.101 -16.8,-14.8 -4.7,-3.9 -9.6,-7.601 -14.5,-11.2 -5.1,-3.7 -10.3,-7.3 -15.6,-10.7 v 0 C 658.599,468.9 640.2,459.3 620.799,451.4 577.7,433.9 530.3,425 480,425 c -29.3,0 -54.8,-4 -76.9,-10.5 -10.899,-3.2 -21,-7 -30.3,-11.1 -26,-11.7 -45.8,-26.5 -60.1,-40 C 304.2,355.3 297,347.1 290.9,339 H 313.5 338 551.9 622 c 11.9,-11.1 22.4,-24 30.3,-38.3 4.5,-8.3 9.5,-18 9.5,-27.7 H 551.9 298.2 280.7 263.2 v -48 h 17.5 17.5 253.7 109.9 V 159 H 551.9 298.2 280.7 263.2 v -48 h 17.5 17.5 253.7 109.9 V 45 H 551.9 298.2 280.7 263.2 V 30 c 0,-16.6 -13.4,-30 -30,-30 h -50 c -16.6,0 -30,13.4 -30,30 v 246 c 0,54.1 32.2,118.2 83.9,167.2 5.4,5.1 11,10.1 16.8,14.8 4.7,3.9 9.6,7.6 14.5,11.2 5.1,3.7 10.3,7.3 15.6,10.7 v 0 c 17.3,11.1 35.7,20.699 55.1,28.6 43.2,17.6 90.6,26.5 140.9,26.5 29.3,0 54.8,4 76.9,10.5 10.899,3.2 21,7 30.3,11.1 26,11.7 45.8,26.5 60.1,40 8.5,8.101 15.7,16.301 21.8,24.4 H 646.5 622 408.1 338 c -11.9,11.1 -22.4,24 -30.3,38.3 -4.5,8.3 -9.5,18 -9.5,27.7 h 109.9 253.7 17.5 17.5 v 48 H 679.3 661.8 408.1 298.2 v 66 h 109.9 253.7 17.5 17.5 v 48 H 679.3 661.8 408.1 298.2 v 66 h 109.9 253.7 17.5 17.5 v 15 c 0,16.6 13.4,30 30,30 h 50 c 16.601,0 30,-13.4 30,-30 V 684 c 0,-54.1 -32.2,-118.2 -84,-167.3 z"
   id="path6"
   inkscape:connector-curvature="0"
   style="fill:#ff6600" />
	</g>
</g>
<g
   id="g12"
   transform="translate(-428.66108,-345.41376)">
</g>
<g
   id="g14"
   transform="translate(-428.66108,-345.41376)">
</g>
<g
   id="g16"
   transform="translate(-428.66108,-345.41376)">
</g>
<g
   id="g18"
   transform="translate(-428.66108,-345.41376)">
</g>
<g
   id="g20"
   transform="translate(-428.66108,-345.41376)">
</g>
<g
   id="g22"
   transform="translate(-428.66108,-345.41376)">
</g>
<g
   id="g24"
   transform="translate(-428.66108,-345.41376)">
</g>
<g
   id="g26"
   transform="translate(-428.66108,-345.41376)">
</g>
<g
   id="g28"
   transform="translate(-428.66108,-345.41376)">
</g>
<g
   id="g30"
   transform="translate(-428.66108,-345.41376)">
</g>
<g
   id="g32"
   transform="translate(-428.66108,-345.41376)">
</g>
<g
   id="g34"
   transform="translate(-428.66108,-345.41376)">
</g>
<g
   id="g36"
   transform="translate(-428.66108,-345.41376)">
</g>
<g
   id="g38"
   transform="translate(-428.66108,-345.41376)">
</g>
<g
   id="g40"
   transform="translate(-428.66108,-345.41376)">
</g>



</svg>