<?xml version="1.0" encoding="UTF-8" standalone="no"?>
<svg
   xmlns:dc="http://purl.org/dc/elements/1.1/"
   xmlns:cc="http://creativecommons.org/ns#"
   xmlns:rdf="http://www.w3.org/1999/02/22-rdf-syntax-ns#"
   xmlns:svg="http://www.w3.org/2000/svg"
   xmlns="http://www.w3.org/2000/svg"
   xmlns:sodipodi="http://sodipodi.sourceforge.net/DTD/sodipodi-0.dtd"
   xmlns:inkscape="http://www.inkscape.org/namespaces/inkscape"
   viewBox="0 -256 1792 1792"
   id="svg3025"
   version="1.1"
   inkscape:version="0.48.3.1 r9886"
   width="100%"
   height="100%"
   sodipodi:docname="link_font_awesome.svg">
  <metadata
     id="metadata3035">
    <rdf:RDF>
      <cc:Work
         rdf:about="">
        <dc:format>image/svg+xml</dc:format>
        <dc:type
           rdf:resource="http://purl.org/dc/dcmitype/StillImage" />
      </cc:Work>
    </rdf:RDF>
  </metadata>
  <defs
     id="defs3033" />
  <sodipodi:namedview
     pagecolor="#ffffff"
     bordercolor="#666666"
     borderopacity="1"
     objecttolerance="10"
     gridtolerance="10"
     guidetolerance="10"
     inkscape:pageopacity="0"
     inkscape:pageshadow="2"
     inkscape:window-width="640"
     inkscape:window-height="480"
     id="namedview3031"
     showgrid="false"
     inkscape:zoom="0.13169643"
     inkscape:cx="896"
     inkscape:cy="896"
     inkscape:window-x="0"
     inkscape:window-y="25"
     inkscape:window-maximized="0"
     inkscape:current-layer="svg3025" />
  <g
     transform="matrix(1,0,0,-1,53.152542,1353.7627)"
     id="g3027">
    <path
       d="m 1456,320 q 0,40 -28,68 l -208,208 q -28,28 -68,28 -42,0 -72,-32 3,-3 19,-18.5 16,-15.5 21.5,-21.5 5.5,-6 15,-19 9.5,-13 13,-25.5 3.5,-12.5 3.5,-27.5 0,-40 -28,-68 -28,-28 -68,-28 -15,0 -27.5,3.5 -12.5,3.5 -25.5,13 -13,9.5 -19,15 -6,5.5 -21.5,21.5 -15.5,16 -18.5,19 -33,-31 -33,-73 0,-40 28,-68 l 206,-207 q 27,-27 68,-27 40,0 68,26 l 147,146 q 28,28 28,67 z m -703,705 q 0,40 -28,68 l -206,207 q -28,28 -68,28 -39,0 -68,-27 L 236,1155 q -28,-28 -28,-67 0,-40 28,-68 L 444,812 q 27,-27 68,-27 42,0 72,31 -3,3 -19,18.5 -16,15.5 -21.5,21.5 -5.5,6 -15,19 -9.5,13 -13,25.5 -3.5,12.5 -3.5,27.5 0,40 28,68 28,28 68,28 15,0 27.5,-3.5 12.5,-3.5 25.5,-13 13,-9.5 19,-15 6,-5.5 21.5,-21.5 15.5,-16 18.5,-19 33,31 33,73 z m 895,-705 q 0,-120 -85,-203 L 1416,-29 q -83,-83 -203,-83 -121,0 -204,85 L 803,180 q -83,83 -83,203 0,123 88,209 l -88,88 Q 634,592 512,592 392,592 308,676 L 100,884 q -84,84 -84,204 0,120 85,203 l 147,146 q 83,83 203,83 121,0 204,-85 l 206,-207 q 83,-83 83,-203 0,-123 -88,-209 l 88,-88 q 86,88 208,88 120,0 204,-84 l 208,-208 q 84,-84 84,-204 z"
       id="path3029"
       inkscape:connector-curvature="0"
       style="fill:currentColor" />
  </g>
</svg>
