<?xml version="1.0" encoding="UTF-8" standalone="no"?>
<svg
   xmlns:dc="http://purl.org/dc/elements/1.1/"
   xmlns:cc="http://creativecommons.org/ns#"
   xmlns:rdf="http://www.w3.org/1999/02/22-rdf-syntax-ns#"
   xmlns:svg="http://www.w3.org/2000/svg"
   xmlns="http://www.w3.org/2000/svg"
   xmlns:sodipodi="http://sodipodi.sourceforge.net/DTD/sodipodi-0.dtd"
   xmlns:inkscape="http://www.inkscape.org/namespaces/inkscape"
   viewBox="0 0 496 496"
   version="1.1"
   id="svg4"
   sodipodi:docname="user-circle_white.svg"
   inkscape:version="0.92.3 (2405546, 2018-03-11)"
   width="496"
   height="496">
  <metadata
     id="metadata10">
    <rdf:RDF>
      <cc:Work
         rdf:about="">
        <dc:format>image/svg+xml</dc:format>
        <dc:type
           rdf:resource="http://purl.org/dc/dcmitype/StillImage" />
        <dc:title />
      </cc:Work>
    </rdf:RDF>
  </metadata>
  <defs
     id="defs8" />
  <sodipodi:namedview
     pagecolor="#ffffff"
     bordercolor="#666666"
     borderopacity="1"
     objecttolerance="10"
     gridtolerance="10"
     guidetolerance="10"
     inkscape:pageopacity="0"
     inkscape:pageshadow="2"
     inkscape:window-width="1366"
     inkscape:window-height="705"
     id="namedview6"
     showgrid="false"
     inkscape:zoom="0.4609375"
     inkscape:cx="257.76271"
     inkscape:cy="248"
     inkscape:window-x="-8"
     inkscape:window-y="-8"
     inkscape:window-maximized="1"
     inkscape:current-layer="svg4" />
  <path
     d="m 248,96 c -53,0 -96,43 -96,96 0,53 43,96 96,96 53,0 96,-43 96,-96 0,-53 -43,-96 -96,-96 z m 0,144 c -26.5,0 -48,-21.5 -48,-48 0,-26.5 21.5,-48 48,-48 26.5,0 48,21.5 48,48 0,26.5 -21.5,48 -48,48 z M 248,0 C 111,0 0,111 0,248 0,385 111,496 248,496 385,496 496,385 496,248 496,111 385,0 248,0 Z m 0,448 c -49.7,0 -95.1,-18.3 -130.1,-48.4 14.9,-23 40.4,-38.6 69.6,-39.5 20.8,6.4 40.6,9.6 60.5,9.6 19.9,0 39.7,-3.1 60.5,-9.6 29.2,1 54.7,16.5 69.6,39.5 C 343.1,429.7 297.7,448 248,448 Z M 410.7,363.9 C 386.3,332.5 348.6,312 305.6,312 c -10.2,0 -26,9.6 -57.6,9.6 -31.5,0 -47.4,-9.6 -57.6,-9.6 -42.9,0 -80.6,20.5 -105.1,51.9 C 61.9,331.2 48,291.2 48,248 48,137.7 137.7,48 248,48 c 110.3,0 200,89.7 200,200 0,43.2 -13.9,83.2 -37.3,115.9 z"
     id="path2"
     style="fill:#ffffff"
     inkscape:connector-curvature="0" />
  <path
     style="fill:#ffffff;stroke-width:2.16949153"
     d="M 227.82373,494.23818 C 183.12914,490.17782 135.34872,472.04565 100.83977,446.04904 49.184842,407.13587 14.708514,350.10295 4.2028618,286.18617 -5.9580835,224.3666 9.6715114,158.0104 46.776491,105.43778 123.55585,-3.347955 273.1139,-31.070588 385.11186,42.722681 c 17.71314,11.670841 46.96262,39.566697 60.93718,58.117089 43.99627,58.40246 59.32004,136.70063 40.88479,208.90446 -21.42901,83.92908 -90.78698,154.21941 -173.8849,176.22237 -30.09901,7.96974 -58.3577,10.71239 -85.2252,8.27158 z m 73.76271,-52.4761 c 28.26236,-8.51412 76.74494,-35.3347 76.95371,-42.57082 0.0996,-3.44808 -17.42291,-20.68925 -27.67603,-27.23185 -5.11425,-3.26344 -15.69501,-7.66492 -23.51284,-9.78111 -13.64547,-3.69367 -14.83594,-3.69063 -29.75226,0.0757 -8.97221,2.26554 -27.19412,4.36431 -43.12233,4.96677 -23.29257,0.88101 -30.91406,0.28837 -48.9855,-3.80899 -25.18077,-5.7093 -36.06722,-4.3906 -57.33529,6.94517 -12.54993,6.68913 -29.89149,23.48939 -29.89149,28.95852 0,6.05505 38.14368,29.31732 61.83051,37.70789 25.58116,9.06162 39.40835,10.95741 73.76271,10.11328 25.11082,-0.617 36.01043,-1.84437 47.72881,-5.37457 z M 101.21226,349.32983 c 16.79063,-15.83943 38.20191,-27.69004 58.80712,-32.54825 18.32044,-4.31954 30.53573,-4.07003 51.9381,1.06084 21.62746,5.18485 47.35577,5.5406 66.8493,0.92435 7.75593,-1.83667 20.51972,-3.86933 28.36398,-4.51701 28.50384,-2.35351 62.61807,11.28329 88.74882,35.47635 18.54961,17.17409 16.48399,18.16149 32.62898,-15.5973 15.65581,-32.73591 18.39705,-45.68111 18.37622,-86.77966 -0.0195,-38.13582 -3.07296,-53.71912 -16.19933,-82.66872 C 395.32661,86.609968 310.83958,38.551854 226.40488,48.458307 179.47086,53.964924 139.57869,73.227496 106.40309,106.40309 55.896149,156.91004 36.450677,226.20989 53.221563,295.93166 c 5.787342,24.05977 26.277085,67.48529 31.842022,67.48529 0.668572,0 7.935472,-6.33921 16.148675,-14.08712 z"
     id="path12"
     inkscape:connector-curvature="0" />
  <path
     style="fill:#ffffff;stroke-width:2.16949153"
     d="m 224.56949,283.54867 c -18.51162,-4.83863 -31.13072,-12.46831 -45.16475,-27.30724 -52.12893,-55.11865 -20.88853,-145.41351 54.64062,-157.9291 50.13103,-8.306982 100.39269,29.16598 107.61052,80.22984 6.96691,49.28867 -26.06403,95.91714 -75.43046,106.48216 -15.31104,3.27675 -24.75397,2.94223 -41.65593,-1.47566 z m 45.55932,-48.23808 c 16.38556,-8.27615 26.0339,-24.3173 26.0339,-43.28347 0,-39.6069 -42.85587,-62.10208 -76.35465,-40.07881 -19.77091,12.99809 -26.43885,43.45106 -14.11754,64.47579 13.18684,22.50164 41.08941,30.67972 64.43829,18.88649 z"
     id="path14"
     inkscape:connector-curvature="0" />
</svg>
